<?xml version="1.0" encoding="UTF-8" standalone="no"?>
<!-- Created with Inkscape (http://www.inkscape.org/) -->

<svg
   xmlns:dc="http://purl.org/dc/elements/1.1/"
   xmlns:cc="http://creativecommons.org/ns#"
   xmlns:rdf="http://www.w3.org/1999/02/22-rdf-syntax-ns#"
   xmlns:svg="http://www.w3.org/2000/svg"
   xmlns="http://www.w3.org/2000/svg"
   xmlns:sodipodi="http://sodipodi.sourceforge.net/DTD/sodipodi-0.dtd"
   xmlns:inkscape="http://www.inkscape.org/namespaces/inkscape"
   width="97.427147mm"
   height="112.77351mm"
   viewBox="0 0 345.2143 399.59119"
   id="svg3837"
   version="1.1"
   inkscape:version="0.91 r13725"
   sodipodi:docname="oarsunwhite.svg">
  <defs
     id="defs3839" />
  <sodipodi:namedview
     id="base"
     pagecolor="#25ffff"
     bordercolor="#666666"
     borderopacity="1.0"
     inkscape:pageopacity="0"
     inkscape:pageshadow="2"
     inkscape:zoom="0.7"
     inkscape:cx="-61.601581"
     inkscape:cy="213.25687"
     inkscape:document-units="px"
     inkscape:current-layer="layer3"
     showgrid="false"
     inkscape:object-paths="false"
     inkscape:object-nodes="false"
     inkscape:snap-smooth-nodes="false"
     inkscape:snap-intersection-paths="false"
     inkscape:window-width="1440"
     inkscape:window-height="775"
     inkscape:window-x="2"
     inkscape:window-y="0"
     inkscape:window-maximized="0"
     fit-margin-top="0"
     fit-margin-left="0"
     fit-margin-right="0"
     fit-margin-bottom="0" />
  <metadata
     id="metadata3842">
    <rdf:RDF>
      <cc:Work
         rdf:about="">
        <dc:format>image/svg+xml</dc:format>
        <dc:type
           rdf:resource="http://purl.org/dc/dcmitype/StillImage" />
        <dc:title></dc:title>
      </cc:Work>
    </rdf:RDF>
  </metadata>
  <g
     inkscape:groupmode="layer"
     id="layer4"
     inkscape:label="Layer 4"
     transform="translate(-194.6229,-375.2115)"
     style="display:none"
     sodipodi:insensitive="true">
    <path
       style="fill:#ffffff;fill-opacity:1;fill-rule:nonzero;stroke:none;stroke-width:10;stroke-linecap:round;stroke-linejoin:round;stroke-miterlimit:4;stroke-dasharray:none"
       d="m 320.97074,671.29573 c -13.44227,-2.41492 -21.45034,-6.47232 -29.10155,-14.74471 -9.24363,-9.9941 -11.21065,-19.31601 -11.24111,-53.27271 -0.0196,-21.71357 -0.14469,-23.21381 -2.01881,-24.18881 -1.09892,-0.57171 -9.00125,-1.5367 -17.56073,-2.14441 -18.48148,-1.31217 -25.59066,-2.82951 -35.64798,-7.60846 -9.29375,-4.41611 -17.02208,-12.23715 -20.37662,-20.62104 -3.31557,-8.28652 -3.31557,-22.79014 0,-31.07666 3.36795,-8.4174 10.88035,-15.9826 20.26385,-20.40627 10.09224,-4.75776 15.12308,-5.76564 36.29423,-7.27114 10.47415,-0.74482 18.47175,-1.77566 19.3646,-2.49595 1.24809,-1.00691 1.6152,-6.93673 2.0458,-33.04553 0.54854,-33.26072 1.03498,-37.16078 5.75383,-46.13204 6.19622,-11.77993 22.6435,-19.92463 43.49481,-21.53865 l 8.1251,-0.62894 0,49.57887 c 0,48.22003 0.0575,49.63472 2.09682,51.61712 1.97078,1.91578 3.49858,2.03858 25.42372,2.0435 68.65183,0.0154 102.30594,5.58438 126.85814,20.99197 18.66314,11.71195 30.48996,28.75644 37.10504,53.47475 9.61011,35.90969 -4.58675,67.02974 -37.84155,82.95011 -17.47477,8.36587 -35.24053,12.14923 -65.6647,13.98385 -24.4526,1.47451 -27.54577,0.64575 -11.96839,-3.20672 21.22097,-5.24821 34.03258,-11.08949 43.33481,-19.75791 6.87546,-6.40701 9.60945,-12.37543 9.60945,-20.9779 0,-19.18206 -12.57147,-31.63282 -38.38737,-38.01881 -8.8149,-2.1805 -11.32452,-2.30431 -46.75637,-2.30656 -34.62073,-0.002 -37.58264,0.13541 -39.31504,1.82663 -1.75437,1.71269 -1.85191,4.77562 -1.53339,48.15391 l 0.34016,46.32487 -7.67896,-0.092 c -4.22343,-0.0506 -10.98143,-0.68522 -15.01779,-1.41034 z M 306.81733,545.36626 c 9.0666,-4.56274 9.88446,-20.7608 1.29356,-25.61958 -6.02307,-3.40648 -8.25662,-3.13634 -29.59548,3.57965 l -20.4389,6.43274 -1.80408,-2.22947 c -2.88057,-3.55981 -7.39422,-4.94917 -11.64652,-3.58497 -4.84257,1.55358 -7.06685,4.17243 -7.75021,9.12507 -0.51181,3.70932 -0.195,4.49118 3.12922,7.72259 2.66687,2.59242 4.61983,3.5954 7.00078,3.5954 4.31287,0 9.16108,-2.4877 10.02904,-5.14606 0.80867,-2.47673 -0.56803,-2.68285 23.63511,3.53851 16.66299,4.2832 21.77129,4.78843 26.14748,2.58612 z"
       id="path4730"
       inkscape:connector-curvature="0" />
    <path
       style="fill:#ffffff;fill-opacity:1;fill-rule:nonzero;stroke:none;stroke-width:10;stroke-linecap:round;stroke-linejoin:round;stroke-miterlimit:4;stroke-dasharray:none"
       d="m 513.80244,747.09704 c -25.41693,-28.85516 -78.37354,-31.89697 -136.30485,-13.00141 -23.45196,7.64936 -33.07153,10.05738 -55.04645,10.20169 -15.284,0.10045 -22.63803,-1.32249 -30.43489,-2.92445 -22.06471,-4.53348 -41.26066,-14.57135 -55.2779,-26.97803 -10.50041,-9.29392 -10.37026,-13.17526 -9.36776,-20.10647 1.7929,-12.39554 11.31857,-25.53795 22.63676,-31.23149 6.30471,-3.17155 19.51918,-6.22202 26.27272,-6.06486 5.1444,0.11973 6.1439,0.59059 11.50228,5.41877 11.14359,10.04093 25.09014,15.03414 46.27877,16.56892 17.44831,1.26389 13.92796,-1.15725 14.25156,-11.50757 0.2621,-8.38354 3.71752,-6.20554 20.78855,-3.11747 17.91976,3.24161 67.99499,0.87666 84.49108,-1.59904 10.28876,-1.54413 15.35961,1.9578 21.48759,3.2852 18.98565,4.11239 34.95168,12.40095 41.37213,21.47789 8.30703,11.74399 10.43609,22.17308 9.57271,46.89138 -0.34694,9.93351 -1.81317,26.06047 -2.02362,26.26932 -0.21044,0.20883 -4.43366,-6.9765 -6.91569,-9.79427 z"
       id="path4732"
       inkscape:connector-curvature="0"
       sodipodi:nodetypes="csssssssssssssssccc" />
    <path
       style="fill:#ffffff;fill-opacity:1;fill-rule:nonzero;stroke:none;stroke-width:10;stroke-linecap:round;stroke-linejoin:round;stroke-miterlimit:4;stroke-dasharray:none"
       d="m 279.79787,541.50411 c -10.68484,-2.75762 -19.45656,-4.96767 -19.49271,-4.91122 -0.0362,0.0565 -0.59594,1.06548 -1.24399,2.24227 -1.56082,2.83436 -4.23793,4.63142 -7.46966,5.01417 -2.14949,0.25458 -3.03534,0.0858 -5.25517,-1.00112 -3.71981,-1.8214 -5.44781,-4.54422 -5.44781,-8.58412 0,-5.48166 3.51541,-9.39619 8.83426,-9.83727 4.41629,-0.36623 7.48406,1.55427 10.14269,6.34957 0.0432,0.078 9.0007,-2.70626 19.9055,-6.18718 10.90479,-3.48093 20.53845,-6.32154 21.40814,-6.31247 2.22787,0.0232 6.44092,1.56799 8.27881,3.03552 0.85489,0.68262 2.1978,2.37756 2.98424,3.76652 1.29265,2.283 1.42975,2.9859 1.42849,7.3236 -10e-4,3.95044 -0.19377,5.15519 -1.09017,6.81853 -1.43479,2.66239 -3.44595,4.51736 -6.23204,5.74804 -4.75162,2.09891 -5.63764,1.98415 -26.75058,-3.46484 z"
       id="path4734"
       inkscape:connector-curvature="0" />
    <path
       style="fill:#ffffff;fill-opacity:1;fill-rule:nonzero;stroke:none;stroke-width:10;stroke-linecap:round;stroke-linejoin:round;stroke-miterlimit:4;stroke-dasharray:none"
       d="m 281.0421,541.81633 c -10.00051,-2.58577 -18.75595,-4.84391 -19.45654,-5.01809 -1.11494,-0.27719 -1.42077,-0.0396 -2.45247,1.90517 -3.00871,5.67147 -10.16045,6.93803 -15.03068,2.6619 -2.44344,-2.14536 -3.21388,-3.9005 -3.21388,-7.32152 0,-5.22573 3.6406,-9.18627 8.84056,-9.61749 4.44305,-0.36845 7.25657,1.39509 10.14574,6.35944 0.0484,0.0831 8.99753,-2.70112 19.88703,-6.18719 10.88949,-3.48607 20.42088,-6.3383 21.18086,-6.3383 4.50809,0 9.61327,3.1461 11.82809,7.28915 1.58707,2.96877 1.59257,10.73433 0.01,13.67151 -1.4348,2.66239 -3.44596,4.51736 -6.23205,5.74804 -4.7191,2.08454 -5.73923,1.95845 -25.50635,-3.15262 l -1e-5,0 z"
       id="path4736"
       inkscape:connector-curvature="0" />
    <path
       style="fill:#ffffff;fill-opacity:1;fill-rule:nonzero;stroke:none;stroke-width:10;stroke-linecap:round;stroke-linejoin:round;stroke-miterlimit:4;stroke-dasharray:none"
       d="m 281.0421,541.81633 c -10.00051,-2.58577 -18.75595,-4.84391 -19.45654,-5.01809 -1.11494,-0.27719 -1.42077,-0.0396 -2.45247,1.90517 -3.00871,5.67147 -10.16045,6.93803 -15.03068,2.6619 -2.44344,-2.14536 -3.21388,-3.9005 -3.21388,-7.32152 0,-5.22573 3.6406,-9.18627 8.84056,-9.61749 4.46148,-0.36998 7.1359,1.30689 10.15103,6.36473 0.0513,0.086 8.99965,-2.69821 19.88527,-6.18718 10.88562,-3.48898 20.41462,-6.3436 21.17557,-6.3436 4.50985,0 9.61465,3.1454 11.82985,7.28915 1.58707,2.96877 1.59257,10.73433 0.01,13.67151 -1.4348,2.66239 -3.44596,4.51736 -6.23205,5.74804 -4.7191,2.08454 -5.73923,1.95845 -25.50635,-3.15262 l -1e-5,0 z"
       id="path4738"
       inkscape:connector-curvature="0" />
    <path
       style="fill:#ffffff;fill-opacity:1;fill-rule:nonzero;stroke:none;stroke-width:10;stroke-linecap:round;stroke-linejoin:round;stroke-miterlimit:4;stroke-dasharray:none"
       d="m 243.16138,543.0823 c -0.83338,-0.51319 -2.62438,-2.12518 -3.98,-3.5822 -2.45128,-2.63464 -2.46321,-2.66418 -2.18074,-5.40098 0.613,-5.93941 4.07988,-9.68304 9.34714,-10.09327 1.99796,-0.15561 2.14653,-0.11124 0.94763,0.28302 -2.43347,0.80027 -4.96885,3.10887 -6.01732,5.47911 -2.12981,4.81478 -0.20262,11.00065 4.14825,13.31502 1.61836,0.86086 1.65898,0.93599 0.50508,0.93425 -0.69015,-10e-4 -1.93667,-0.42177 -2.77004,-0.93495 z"
       id="path4740"
       inkscape:connector-curvature="0" />
    <path
       style="fill:#ffffff;fill-opacity:1;fill-rule:nonzero;stroke:none;stroke-width:10;stroke-linecap:round;stroke-linejoin:round;stroke-miterlimit:4;stroke-dasharray:none"
       d="m 281.0421,541.81633 c -10.00051,-2.58577 -18.75595,-4.84391 -19.45654,-5.01809 -1.11494,-0.27719 -1.42077,-0.0396 -2.45247,1.90517 -3.00871,5.67147 -10.16045,6.93803 -15.03068,2.6619 -2.44344,-2.14536 -3.21388,-3.9005 -3.21388,-7.32152 0,-5.22573 3.6406,-9.18627 8.84056,-9.61749 4.46384,-0.37018 7.12057,1.29567 10.15171,6.36541 0.0517,0.0864 9.00776,-2.69782 19.90245,-6.18718 10.89468,-3.48936 20.42338,-6.34428 21.17488,-6.34428 4.49273,0 9.60111,3.15218 11.81268,7.28915 1.58707,2.96877 1.59257,10.73433 0.01,13.67151 -1.4348,2.66239 -3.44596,4.51736 -6.23205,5.74804 -4.7191,2.08454 -5.73923,1.95845 -25.50635,-3.15262 l -1e-5,0 z"
       id="path4742"
       inkscape:connector-curvature="0" />
    <path
       style="fill:#ffffff;fill-opacity:1;fill-rule:nonzero;stroke:none;stroke-width:10;stroke-linecap:round;stroke-linejoin:round;stroke-miterlimit:4;stroke-dasharray:none"
       d="m 281.0421,541.81633 c -10.00051,-2.58577 -18.75595,-4.84391 -19.45654,-5.01809 -1.11494,-0.27719 -1.42077,-0.0396 -2.45247,1.90517 -3.02332,5.69901 -10.16019,6.93825 -15.08012,2.6185 -2.27198,-1.99483 -3.16444,-4.12117 -3.16444,-7.53951 0,-6.9783 7.50371,-11.54244 13.89209,-8.44988 2.01757,0.97669 3.13576,2.17359 5.10018,5.45919 0.0517,0.0864 9.00776,-2.69782 19.90245,-6.18718 10.89468,-3.48936 20.42338,-6.34428 21.17488,-6.34428 4.49273,0 9.60111,3.15218 11.81268,7.28915 1.58707,2.96877 1.59257,10.73433 0.01,13.67151 -1.4348,2.66239 -3.44596,4.51736 -6.23205,5.74804 -4.7191,2.08454 -5.73923,1.95845 -25.50635,-3.15262 l -1e-5,0 z"
       id="path4744"
       inkscape:connector-curvature="0" />
    <path
       style="fill:#ffffff;fill-opacity:1;fill-rule:nonzero;stroke:none;stroke-width:10;stroke-linecap:round;stroke-linejoin:round;stroke-miterlimit:4;stroke-dasharray:none"
       d="m 281.0421,541.81633 c -10.00051,-2.58577 -18.75595,-4.84391 -19.45654,-5.01809 -1.11494,-0.27719 -1.42077,-0.0396 -2.45247,1.90517 -3.02332,5.69901 -10.16019,6.93825 -15.08012,2.6185 -2.27198,-1.99483 -3.16444,-4.12117 -3.16444,-7.53951 0,-6.9783 7.50371,-11.54244 13.89209,-8.44988 2.01757,0.97669 3.13576,2.17359 5.10018,5.45919 0.0517,0.0864 9.00776,-2.69782 19.90245,-6.18718 10.89468,-3.48936 20.42338,-6.34428 21.17488,-6.34428 4.49273,0 9.60111,3.15218 11.81268,7.28915 1.58707,2.96877 1.59257,10.73433 0.01,13.67151 -1.4348,2.66239 -3.44596,4.51736 -6.23205,5.74804 -4.7191,2.08454 -5.73923,1.95845 -25.50635,-3.15262 l -1e-5,0 z"
       id="path4746"
       inkscape:connector-curvature="0" />
    <path
       style="fill:#ffffff;fill-opacity:1;fill-rule:nonzero;stroke:none;stroke-width:10;stroke-linecap:round;stroke-linejoin:round;stroke-miterlimit:4;stroke-dasharray:none"
       d="m 281.0421,541.81633 c -10.00051,-2.58577 -18.75595,-4.84391 -19.45654,-5.01809 -1.11494,-0.27719 -1.42077,-0.0396 -2.45247,1.90517 -3.02332,5.69901 -10.16019,6.93825 -15.08012,2.6185 -2.27198,-1.99483 -3.16444,-4.12117 -3.16444,-7.53951 0,-6.9783 7.50371,-11.54244 13.89209,-8.44988 2.01757,0.97669 3.13576,2.17359 5.10018,5.45919 0.0517,0.0864 9.00776,-2.69782 19.90245,-6.18718 10.89468,-3.48936 20.42338,-6.34428 21.17488,-6.34428 4.49273,0 9.60111,3.15218 11.81268,7.28915 1.58707,2.96877 1.59257,10.73433 0.01,13.67151 -1.4348,2.66239 -3.44596,4.51736 -6.23205,5.74804 -4.7191,2.08454 -5.73923,1.95845 -25.50635,-3.15262 l -1e-5,0 z"
       id="path4748"
       inkscape:connector-curvature="0" />
    <path
       style="fill:#ffffff;fill-opacity:1;fill-rule:nonzero;stroke:none;stroke-width:10;stroke-linecap:round;stroke-linejoin:round;stroke-miterlimit:4;stroke-dasharray:none"
       d=""
       id="path4750"
       inkscape:connector-curvature="0" />
    <path
       style="fill:#ffffff;fill-opacity:1;fill-rule:nonzero;stroke:none;stroke-width:10;stroke-linecap:round;stroke-linejoin:round;stroke-miterlimit:4;stroke-dasharray:none"
       d=""
       id="path4752"
       inkscape:connector-curvature="0" />
    <path
       style="fill:#ffffff;fill-opacity:1;fill-rule:nonzero;stroke:none;stroke-width:10;stroke-linecap:round;stroke-linejoin:round;stroke-miterlimit:4;stroke-dasharray:none"
       d=""
       id="path4754"
       inkscape:connector-curvature="0" />
    <path
       style="fill:#ffffff;fill-opacity:1;fill-rule:nonzero;stroke:none;stroke-width:10;stroke-linecap:round;stroke-linejoin:round;stroke-miterlimit:4;stroke-dasharray:none"
       d=""
       id="path4756"
       inkscape:connector-curvature="0" />
    <path
       style="fill:#ffffff;fill-opacity:1;fill-rule:nonzero;stroke:none;stroke-width:10;stroke-linecap:round;stroke-linejoin:round;stroke-miterlimit:4;stroke-dasharray:none"
       d="m 259.87533,529.95214 c -0.16955,-0.27434 0.43249,-0.73343 1.33787,-1.02019 23.61434,-7.47929 33.49657,-10.35864 32.70834,-9.5301 -0.13889,0.14599 -7.50019,2.58181 -16.35844,5.41291 -8.85824,2.8311 -16.39246,5.25742 -16.74269,5.39182 -0.35024,0.1344 -0.77553,0.0199 -0.94508,-0.25444 z"
       id="path4758"
       inkscape:connector-curvature="0" />
    <path
       style="fill:#ffffff;fill-opacity:1;fill-rule:nonzero;stroke:none;stroke-width:10;stroke-linecap:round;stroke-linejoin:round;stroke-miterlimit:4;stroke-dasharray:none"
       d=""
       id="path4760"
       inkscape:connector-curvature="0" />
    <path
       style="fill:#ffffff;fill-opacity:1;fill-rule:nonzero;stroke:none;stroke-width:10;stroke-linecap:round;stroke-linejoin:round;stroke-miterlimit:4;stroke-dasharray:none"
       d="m 278.43651,545.83717 c -11.93108,-4.83053 -22.37674,-9.04899 -23.21258,-9.37437 -1.33018,-0.51783 -1.69504,-0.074 -2.92591,3.55907 -3.60697,10.64641 -12.12159,12.96146 -17.9913,4.89166 -2.71058,-3.72657 -3.77533,-7.69882 -3.77533,-14.08468 0,-13.03626 8.95228,-21.56261 16.57392,-15.78536 2.40706,1.82458 3.74112,4.06052 6.08477,10.19841 0.0617,0.1614 10.74668,-5.03984 23.74457,-11.55838 12.99787,-6.51852 24.36607,-11.85184 25.26264,-11.85184 5.36004,0 11.45459,5.88863 14.0931,13.61698 1.89344,5.546 1.9,20.05296 0.0119,25.53995 -1.71178,4.97366 -4.11119,8.43896 -7.43513,10.73801 -5.63011,3.89416 -6.84717,3.65861 -30.43029,-5.88945 l -10e-6,0 z"
       id="path4762"
       inkscape:connector-curvature="0" />
    <path
       style="fill:#ffffff;fill-opacity:1;fill-rule:nonzero;stroke:none;stroke-width:10;stroke-linecap:round;stroke-linejoin:round;stroke-miterlimit:4;stroke-dasharray:none"
       d="m 281.67344,542.67448 c 0.34724,-0.14011 0.91545,-0.14011 1.26269,0 0.34724,0.14012 0.0631,0.25476 -0.63134,0.25476 -0.69448,0 -0.97859,-0.11464 -0.63135,-0.25476 z"
       id="path4764"
       inkscape:connector-curvature="0" />
    <path
       style="fill:#ffffff;fill-opacity:1;fill-rule:nonzero;stroke:none;stroke-width:10;stroke-linecap:round;stroke-linejoin:round;stroke-miterlimit:4;stroke-dasharray:none"
       d="m 331.54972,671.78956 c -25.11278,-1.53457 -40.51085,-11.33573 -46.46503,-29.57588 -2.50577,-7.67623 -2.96884,-13.50822 -3.05782,-38.51123 l -0.0815,-22.89665 -1.30582,-1.30581 c -1.28013,-1.28014 -1.59193,-1.3287 -15.85647,-2.46953 -21.36941,-1.70906 -25.36054,-2.47324 -33.83357,-6.47812 -7.90317,-3.73553 -12.50887,-7.28684 -16.79765,-12.95211 -6.52826,-8.62352 -8.97276,-20.27291 -6.83112,-32.55403 2.72989,-15.65432 13.54257,-26.3359 32.1041,-31.71483 5.21049,-1.50994 10.0514,-2.07811 26.46495,-3.10615 6.9448,-0.43499 13.48014,-1.01933 14.52298,-1.29856 3.64205,-0.97518 3.57953,-0.54877 3.461,-23.60614 -0.13048,-25.38319 0.69039,-39.46489 2.78778,-47.82299 1.82428,-7.26976 6.83343,-14.80143 12.71612,-19.11972 4.94645,-3.63103 12.34818,-6.73782 20.62626,-8.65763 4.11232,-0.95372 14.16051,-2.27469 17.30276,-2.27469 l 2.42226,0 0.35142,48.61359 c 0.22618,31.28959 0.53869,49.20169 0.87694,50.26388 1.04614,3.28518 0.31879,3.20756 34.48453,3.67995 35.51286,0.49102 46.33203,1.06777 62.17388,3.31436 17.26997,2.44912 30.18821,6.19552 42.67895,12.37726 8.84962,4.37973 14.60791,8.49126 21.48911,15.34364 12.38283,12.33095 19.80554,27.36534 24.56237,49.75001 1.46936,6.91448 1.58532,19.05787 0.2508,26.26397 -4.56554,24.65301 -20.0954,42.33283 -46.30228,52.71238 -14.8386,5.877 -32.69202,9.25238 -55.05332,10.4084 -12.29031,0.63538 -18.2018,0.64717 -17.15518,0.0342 0.42627,-0.24965 3.49461,-1.16937 6.81853,-2.04383 21.11916,-5.55604 31.45887,-9.80643 40.58573,-16.68373 10.05366,-7.57565 13.79123,-14.26 13.82756,-24.72947 0.0597,-17.21641 -10.02318,-28.9281 -30.8834,-35.87223 -13.73783,-4.57316 -24.89271,-5.37852 -65.33427,-4.71701 l -26.63468,0.43568 -1.90213,1.90501 -1.90213,1.90501 0.11324,45.69843 c 0.10941,44.16022 0.0818,45.69842 -0.82075,45.69842 -0.51369,0 -1.58743,0.0872 -2.38608,0.19368 -0.79865,0.10653 -4.40679,0.0131 -8.01809,-0.20755 l 0,2e-5 z M 306.80099,545.55495 c 4.54825,-2.03428 7.35376,-6.37147 7.71688,-11.92997 0.4433,-6.78595 -2.23341,-11.93735 -7.64726,-14.71735 -5.05816,-2.59735 -8.23149,-2.05005 -32.93637,5.68047 -7.52062,2.35331 -13.83471,4.27875 -14.0313,4.27875 -0.19659,0 -1.04294,-0.78074 -1.88078,-1.73498 -4.50421,-5.13001 -15.85514,-4.73219 -19.43758,0.68124 -1.62772,2.45966 -2.52441,7.23317 -1.72242,9.16934 0.72626,1.75334 5.5025,6.34972 7.31379,7.03837 1.72789,0.65694 7.05868,0.64024 9.47096,-0.0297 1.83852,-0.51058 5.13856,-3.284 6.19196,-5.20387 0.48815,-0.88966 1.31946,-0.73778 15.90991,2.90678 22.75711,5.68452 26.05746,6.09487 31.05221,3.86089 l 0,3e-5 z"
       id="path4766"
       inkscape:connector-curvature="0" />
    <path
       style="fill:#ffffff;fill-opacity:1;fill-rule:nonzero;stroke:none;stroke-width:10;stroke-linecap:round;stroke-linejoin:round;stroke-miterlimit:4;stroke-dasharray:none"
       d="m 331.54972,671.78956 c -25.11278,-1.53457 -40.51085,-11.33573 -46.46503,-29.57588 -2.50577,-7.67623 -2.96884,-13.50822 -3.05782,-38.51123 l -0.0815,-22.89665 -1.3066,-1.30659 c -1.27874,-1.27874 -1.60593,-1.33054 -15.35139,-2.43023 -7.72464,-0.618 -15.40851,-1.27988 -17.07526,-1.47085 -5.05908,-0.57965 -12.30955,-2.69468 -17.23343,-5.02714 -7.94375,-3.76299 -12.53617,-7.303 -16.82683,-12.97076 -6.52826,-8.62352 -8.97276,-20.27291 -6.83112,-32.55403 2.72989,-15.65432 13.54257,-26.3359 32.1041,-31.71483 5.21049,-1.50994 10.0514,-2.07811 26.46495,-3.10615 6.9448,-0.43499 40.84213,28.73673 14.52298,-1.29856 -2.48484,-2.83568 56.43667,15.16552 56.31814,-7.89185 -0.13048,-25.38319 -3.59532,14.82082 -1.49793,6.46272 1.82428,-7.26976 -41.738,-84.80143 -35.85531,-89.11972 4.94645,-3.63103 12.34818,-6.73782 20.62626,-8.65763 4.11232,-0.95372 14.16051,-2.27469 17.30276,-2.27469 l 2.42226,0 0.35142,48.61359 c 0.22618,31.28959 0.53869,49.20169 0.87694,50.26388 1.04614,3.28518 0.31879,3.20756 34.48453,3.67995 35.51286,0.49102 46.33203,1.06777 62.17388,3.31436 17.26997,2.44912 30.18821,6.19552 42.67895,12.37726 8.84962,4.37973 14.60791,8.49126 21.48911,15.34364 12.38283,12.33095 19.80554,27.36534 24.56237,49.75001 1.46936,6.91448 1.58532,19.05787 0.2508,26.26397 -4.56554,24.65301 -20.0954,42.33283 -46.30228,52.71238 -14.8386,5.877 -32.69202,9.25238 -55.05332,10.4084 -12.44277,0.64326 -18.20634,0.64958 -17.12759,0.0188 0.44144,-0.25813 5.01283,-1.61175 10.15865,-3.00805 21.93814,-5.95281 33.64631,-11.58279 42.59676,-20.48304 6.23215,-6.19719 8.31382,-11.2621 8.31382,-20.22837 0,-9.17453 -2.5238,-16.01121 -8.19564,-22.20102 -5.55933,-6.06703 -14.42308,-11.03267 -25.64447,-14.36652 -12.07273,-3.58679 -24.56315,-4.34456 -61.73751,-3.74551 l -27.13979,0.43735 -1.9021,1.90501 -1.9021,1.90501 0.11324,45.69843 c 0.10941,44.16022 0.0818,45.69842 -0.82075,45.69842 -0.51369,0 -1.58743,0.0872 -2.38608,0.19368 -0.79865,0.10653 -4.40679,0.0131 -8.01809,-0.20755 z M 306.8387,545.4636 c 4.67864,-2.19922 7.31496,-6.26352 7.67917,-11.83862 0.45095,-6.90312 -2.22475,-11.94219 -7.78595,-14.66303 -5.16299,-2.52602 -8.10983,-2.02012 -32.50097,5.57955 -7.63522,2.37894 -14.06294,4.32535 -14.28383,4.32535 -0.2209,0 -1.08712,-0.78074 -1.92496,-1.73498 -3.99939,-4.55505 -13.37762,-4.86915 -18.0655,-0.60505 -2.44481,2.2238 -4.06103,7.65323 -3.06488,10.29599 0.68932,1.82872 3.20414,4.45362 5.98967,6.25183 1.89205,1.22143 2.76648,1.44913 5.55584,1.44676 1.82071,-0.002 4.16504,-0.24016 5.20962,-0.53025 1.8448,-0.51232 5.13668,-3.28328 6.20307,-5.22147 0.50258,-0.91345 1.22682,-0.78252 16.16244,2.92189 8.59995,2.13301 17.34091,4.19598 19.42435,4.58437 4.47121,0.83354 8.51311,0.54557 11.40193,-0.81234 z"
       id="path4768"
       inkscape:connector-curvature="0"
       sodipodi:nodetypes="csscsssssssssssssscssssssssssssssssscccsscccssssssssscsssss" />
  </g>
  <g
     inkscape:groupmode="layer"
     id="layer2"
     inkscape:label="Layer 2"
     style="display:inline"
     transform="translate(-194.6229,-375.2115)">
    <circle
       style="fill:#ffffff;fill-opacity:1;stroke-width:0;stroke-linecap:round;stroke-linejoin:round;stroke-miterlimit:4;stroke-dasharray:none;stroke:#ffffff;stroke-opacity:1"
       id="path4696"
       cx="251.67194"
       cy="534.59381"
       r="10.458669" />
  </g>
  <g
     inkscape:groupmode="layer"
     id="layer3"
     inkscape:label="Layer 3"
     style="display:inline"
     transform="translate(-194.6229,-375.2115)">
    <path
       style="fill:#ffffff;fill-opacity:1;fill-rule:nonzero;stroke:none;stroke-width:10;stroke-linecap:round;stroke-linejoin:miter;stroke-miterlimit:4;stroke-dasharray:none"
       d="m 346.35,657.87608 c -1.07799,-0.51736 -1.39945,-9.51532 -1.39945,-39.17289 l 2.02031,-36.73349 13.37365,-1.45748 c 62.11973,-6.76988 59.82223,1.11215 68.56944,3.80391 17.136,5.27324 26.81538,13.7418 29.13341,25.48902 2.14106,10.85041 -1.20927,17.5578 -12.65891,25.34339 -12.50826,8.50541 -33.7351,15.31666 -61.91791,19.86815 -15.21723,2.45758 -34.81265,3.96701 -37.12054,2.85939 z"
       id="path4702"
       inkscape:connector-curvature="0"
       sodipodi:nodetypes="sscssssss" />
    <path
       style="fill:#ffffff;fill-opacity:1;fill-rule:nonzero;stroke:none;stroke-width:10;stroke-linecap:round;stroke-linejoin:miter;stroke-miterlimit:4;stroke-dasharray:none"
       d="m 219.31392,695.5198 c -4.46204,-10.95193 -8.5277,-22.56791 -8.05334,-38.41989 1.14803,-38.36532 17.42778,-59.73096 45.30331,-69.11441 3.76259,-1.26658 10.349,-2.71528 18.50608,-4.07047 l 2.07661,-0.34501 0.0244,17.83698 c 0.0259,19.06395 0.69367,32.83613 2.06442,42.57994 0.80875,5.74903 5.05042,14.08421 5.87025,16.2445 0.33132,0.87306 -2.50538,1.0077 -4.87679,1.01683 -4.21281,0.0161 -13.94798,1.56692 -19.75941,3.14741 -18.51909,5.03651 -27.08878,16.28712 -35.85818,29.92196 l -3.5428,5.50841 -1.75444,-4.30625 3.28303,3.53553 z"
       id="path4704"
       inkscape:connector-curvature="0"
       sodipodi:nodetypes="cssscssscsscccc" />
  </g>
  <g
     inkscape:label="Layer 1"
     inkscape:groupmode="layer"
     id="layer1"
     transform="translate(-194.6229,-375.2115)">
    <path
       style="fill:none;fill-rule:evenodd;stroke:#ffffff;stroke-width:13.3;stroke-linecap:round;stroke-linejoin:round;stroke-miterlimit:4;stroke-dasharray:none;stroke-opacity:1"
       d="m 348.52546,581.77904 46.44419,-0.653 c 0,0 64.18673,-3.78064 64.18673,35.61531 0,39.39595 -109.63025,43.55429 -109.63025,43.55429 M 274.0675,584.10599 c -26.28527,2.06224 -64.34971,9.25194 -62.64166,78.47924 1.70805,69.2273 91.0453,101.05181 167.84984,72.21021 46.52275,-17.4702 131.69246,-19.61438 144.94888,33.36109 1.78932,-37.12327 12.37503,-81.58204 -29.18889,-99.053 -21.40811,-8.04378 -34.7995,-7.90415 -34.7995,-7.90415 m -175.71854,-3.42624 c -58.68759,0.954 -58.83263,45.98748 -58.83263,45.98748 m 123.94673,-43.75346 c 0,0 183.55551,37.6269 183.55551,-79.04572 C 520.30143,476.3619 427.97782,485.85021 345.71861,484.39527 m 0,0 -0.86654,-102.53378 c -45,0.71428 -61.2947,17.22776 -64.49493,40.50072 -3.20023,23.27296 -3.42425,61.67591 -3.42425,61.67591 l -28.43536,2.13358 c 0,0 -47.22464,3.53554 -47.22464,47.22463 0,43.6891 47.72971,47.72971 47.72971,47.72971 l 26.1048,2.08158 c 0,0 0.002,24.85953 2.62283,49.40114 2.62053,24.54161 19.14273,47.61413 70.21416,44.39984 l -0.13322,-94.51527"
       id="path4685"
       inkscape:connector-curvature="0"
       sodipodi:nodetypes="ccscczsccccccccsczccscczcc" />
    <path
       style="fill:#000000;fill-opacity:1;fill-rule:evenodd;stroke:#ffffff;stroke-width:13.512;stroke-linecap:butt;stroke-linejoin:round;stroke-miterlimit:4;stroke-dasharray:none;stroke-opacity:1"
       d="m 294.14922,518.44173 0,28.05808 36.62941,0 c 0,0 -33.98947,-3.03331 -36.62941,-28.05808 z"
       id="path4529"
       inkscape:connector-curvature="0" />
  </g>
</svg>
